<svg width="179" height="40" xmlns="http://www.w3.org/2000/svg"><g fill-rule="nonzero" fill="none"><path fill="#78B2FF" d="M21.36 6.16l-2.64 4.48L16 15.2l5.36 2.24 5.36-2.24-1.12-5.6zM21.36 6.16L24 1.68c1.2-2 4.16-2 5.36 0L32 6.16 27.04 8l-5.68-1.84z"/><path fill="#619AFF" d="M30.96 11.68l-4.24 3.52L24 10.64l-2.64-4.48H32z"/><path d="M65.92 18.48c-3.84-.8-4.56-1.68-4.56-3.12 0-1.52 1.44-2.56 3.44-2.56 1.84 0 3.36.56 4.96 1.84l.24.24 1.6-2.08-.24-.24c-2-1.6-3.92-2.24-6.48-2.24-3.6 0-6.16 2.16-6.16 5.2 0 3.44 2.48 4.72 6.24 5.52 3.68.8 4.4 1.6 4.4 3.04 0 1.68-1.44 2.72-3.6 2.72-2.24 0-4-.72-5.84-2.4l-.24-.24-1.68 2 .24.24c2.24 2 4.64 2.96 7.52 2.96 3.76 0 6.4-2.24 6.4-5.36-.16-2.96-2-4.64-6.24-5.52zM125.36 11.68h-2.64v3.44h-1.84v2.4h1.84v7.6c0 2.64 1.44 4.08 4.08 4.08.96 0 1.76-.16 2.48-.56l.16-.08v-2.4l-.48.24c-.64.32-1.12.4-1.76.4-1.28 0-1.92-.56-1.92-1.84V17.6h4.16v-2.4h-4.16v-3.52h.08zM152.64 24.56c-.96 1.84-2.96 2.48-4.48 2.16-1.52-.4-2.4-1.68-2.4-3.6v-8h-2.64v8.48c0 2.72 1.36 4.72 3.68 5.36.56.16 1.12.24 1.76.24 1.6 0 3.36-.8 4.08-2v1.68h2.56V15.04h-2.56v9.52zM173.52 14.88c-1.92 0-3.44.8-4.56 2.32-.88-1.44-2.48-2.32-4.32-2.32h-.08c-1.6 0-2.72.48-3.76 2V15.2h-2.64v13.84h2.64V19.2c.88-1.76 2.88-2.16 4.32-1.76 1.28.4 2.08 1.68 2.08 3.44v8.08h2.56v-7.92c0-2.56 1.68-3.76 3.28-3.76 1.92 0 3.04 1.36 3.04 3.6v8h2.64V20.4c0-3.36-2-5.52-5.2-5.52zM81.52 14.88h-.16c-1.44 0-2.96.64-4.08 1.92v-1.6h-2.64v18.64h2.64v-6.32c1.44 1.12 2.8 1.68 4.16 1.76h.08c2.72 0 4.96-1.2 6.16-3.36 1.36-2.32 1.36-5.44 0-7.68-1.28-2.16-3.52-3.36-6.16-3.36zm3.84 9.84c-.8 1.44-2.16 2.16-3.92 2.16-1.36 0-2.96-.8-4.16-2.08v-5.6c1.12-1.2 2.72-1.92 4-1.92h.08c1.68 0 3.12.72 3.92 2.08.96 1.6.96 3.76.08 5.36zM135.28 16.96V15.2h-2.64v13.84h2.64v-9.2c.56-1.44 2-2.16 4.8-2.08v-2.8c-1.2-.32-3.36 0-4.8 2z" fill="#000"/><path fill="#FCE077" d="M10.4 18.08l.32 6.16H0l2.72-4.56 2.64-4.48z"/><path d="M8 10.64c1.2-2 4.16-2 5.36 0L16 15.12l-5.36 2-5.36-2L8 10.64z" fill="#FFB94F"/><path fill="#FFCC4D" d="M15.12 20.96l-4.4 3.28L8 19.68 5.36 15.2H16z"/><path fill="#8AC4FF" d="M25.92 20.8l-4.56 3.44L16 20.72V15.2h10.72z"/><path fill="#FFB54F" d="M13.36 19.68L16 15.2l2.72 4.48 2.64 4.56L16 26.4l-5.28-2.16z"/><path fill="#8487FF" d="M39.04 20.32l3.68 3.92 2.64-4.56L48 15.2H37.36z"/><path d="M40 28.72c-1.2 2-4.16 2-5.36 0L32 24.24l6-2.32 4.72 2.32L40 28.72z" fill="#797BFF"/><path fill="#FF9F59" d="M20.24 29.68l1.12-5.44H10.72l2.64 4.48L16 33.28z"/><path d="M24 37.76l2.64-4.48-5.2-1.6-5.44 1.6 2.64 4.48c1.28 2 4.16 2 5.36 0z" fill="#F4315A"/><path fill="#4D80F6" d="M34.72 10.64l2.64 4.56L32 16.8l-5.28-1.6 2.64-4.56L32 6.16z"/><path fill="#6874FF" d="M32 24.24h10.72l-2.24-3.76-3.12-5.28-5.44 2.64z"/><path fill="#4C5BF9" d="M34.72 19.68L32 24.24l-5.28-3.2V15.2h10.64z"/><path fill="#D631AA" d="M24 19.68l2.72-4.48 2.64 4.48L32 24.24l-5.28 2-5.36-2z"/><path fill="#EA3087" d="M29.36 28.72L32 24.24H21.36l.8 5.44 4.56 3.6z"/><path fill="#FF5257" d="M24 28.72l-2.64-4.48-2.64 4.48L16 33.28h10.72z"/><path d="M101.36 25.52c-1.04.96-2.16 1.36-3.52 1.36-2.24 0-3.84-1.44-4.24-3.68h10.32v-.32-.72c0-4.4-2.56-7.28-6.48-7.28-3.76 0-6.64 3.12-6.64 7.2s2.96 7.2 6.88 7.2c2.16 0 3.76-.72 5.28-2.16l-1.6-1.6zm-3.92-8.32c2.96 0 3.68 2.72 3.84 3.76H93.6c.32-2.24 1.92-3.76 3.84-3.76zM113.28 26.88c-2.56 0-4.48-2.08-4.48-4.8 0-2.64 2-4.8 4.48-4.8 1.2 0 2.32.48 3.36 1.52l1.76-1.68c-1.12-1.12-2.72-2.32-5.28-2.32-4 0-7.04 3.2-7.04 7.2s3.12 7.2 7.04 7.2c2.56 0 4.16-1.12 5.28-2.32l-1.76-1.68c-1.04 1.2-2.16 1.68-3.36 1.68z" fill="#000"/></g></svg>